# xmcd CD database file
#
# Track frame offsets:
#	150
#	14339
#	28565
#	40740
#	54710
#	68155
#	80757
#	91465
#	102292
#	114728
#	126860
#	135851
#
# Disc length: 1933 seconds
#
# Revision: 0
# Processed by: cddbd v1.5.1PL0 Copyright (c) Steve Scherf et al.
# Submitted via: CDex 1.51
#
DISCID=9c078b0c
DTITLE=Ray Charles - Brother Rays Blues
DYEAR=2005
DGENRE=Blues
TTITLE0=Baby Let Me Hold Your Hand
TTITLE1=Kiss Me Baby
TTITLE2=Cc Rider
TTITLE3=I'm Going Down To The River
TTITLE4=Alone In The City
TTITLE5=Rockin Chair Blues
TTITLE6=Hey Now
TTITLE7=They're Crazy About Me
TTITLE8=Honey Honey
TTITLE9=St Pete Blues
TTITLE10=Going Away Blues
TTITLE11=All To Myself Alone
EXTD=YEAR: 2005
EXTT0=
EXTT1=
EXTT2=
EXTT3=
EXTT4=
EXTT5=
EXTT6=
EXTT7=
EXTT8=
EXTT9=
EXTT10=
EXTT11=
PLAYORDER=
